<svg xmlns="http://www.w3.org/2000/svg" width="512" height="512" viewBox="0 0 512 512">
  <defs>
    <linearGradient id="bg" x1="0%" y1="0%" x2="100%" y2="100%">
      <stop offset="0%" stop-color="#ffe5f3" />
      <stop offset="100%" stop-color="#dff5ff" />
    </linearGradient>
    <radialGradient id="pet" cx="30%" cy="28%" r="80%">
      <stop offset="0%" stop-color="#ffffff" />
      <stop offset="45%" stop-color="#ffd9ec" />
      <stop offset="100%" stop-color="#ff79b8" />
    </radialGradient>
  </defs>
  <rect width="512" height="512" rx="120" fill="url(#bg)" />
  <ellipse cx="258" cy="280" rx="146" ry="104" fill="url(#pet)" />
  <circle cx="220" cy="264" r="10" fill="#5a4266" />
  <circle cx="295" cy="264" r="10" fill="#5a4266" />
  <path d="M225 311c21 17 43 17 64 0" fill="none" stroke="#834f82" stroke-width="9" stroke-linecap="round" />
  <path d="M372 184c20-25 57-16 57 15 0 23-24 42-57 65-33-23-57-42-57-65 0-31 37-40 57-15z" fill="#ff5ea8" />
  <circle cx="140" cy="180" r="20" fill="#ffffff88" />
  <circle cx="102" cy="230" r="10" fill="#ffffff88" />
</svg>
